<svg width="150" height="150" viewBox="0 0 150 150" fill="none" xmlns="http://www.w3.org/2000/svg">
<g clip-path="url(#clip0_131_4175)">
<path d="M125.625 -1.97656H24.375C17.6617 -1.97656 11.2234 0.726673 6.47636 5.53846C1.72935 10.3503 -0.9375 16.8764 -0.9375 23.6813V126.313C-0.9375 133.118 1.72935 139.644 6.47636 144.456C11.2234 149.268 17.6617 151.971 24.375 151.971H125.625C132.338 151.971 138.777 149.268 143.524 144.456C148.271 139.644 150.937 133.118 150.938 126.313V23.6813C150.937 16.8764 148.271 10.3503 143.524 5.53846C138.777 0.726673 132.338 -1.97656 125.625 -1.97656ZM134.062 126.313C134.062 128.581 133.174 130.757 131.591 132.361C130.009 133.964 127.863 134.866 125.625 134.866H24.375C22.1372 134.866 19.9911 133.964 18.4088 132.361C16.8264 130.757 15.9375 128.581 15.9375 126.313V23.6813C15.9375 21.413 16.8264 19.2376 18.4088 17.6337C19.9911 16.0298 22.1372 15.1287 24.375 15.1287H125.625C127.863 15.1287 130.009 16.0298 131.591 17.6337C133.174 19.2376 134.062 21.413 134.062 23.6813V126.313Z" fill="black"/>
<path d="M100.313 66.4431H83.4375V49.3378C83.4375 47.0695 82.5486 44.8941 80.9662 43.2902C79.3839 41.6862 77.2378 40.7852 75 40.7852C72.7622 40.7852 70.6161 41.6862 69.0338 43.2902C67.4515 44.8941 66.5625 47.0695 66.5625 49.3378V66.4431H49.6875C47.4497 66.4431 45.3036 67.3441 43.7213 68.9481C42.139 70.552 41.25 72.7274 41.25 74.9957C41.25 77.264 42.139 79.4394 43.7213 81.0433C45.3036 82.6472 47.4497 83.5483 49.6875 83.5483H66.5625V100.654C66.5625 102.922 67.4515 105.097 69.0338 106.701C70.6161 108.305 72.7622 109.206 75 109.206C77.2378 109.206 79.3839 108.305 80.9662 106.701C82.5486 105.097 83.4375 102.922 83.4375 100.654V83.5483H100.313C102.55 83.5483 104.696 82.6472 106.279 81.0433C107.861 79.4394 108.75 77.264 108.75 74.9957C108.75 72.7274 107.861 70.552 106.279 68.9481C104.696 67.3441 102.55 66.4431 100.313 66.4431Z" fill="black"/>
</g>
<defs>
<clipPath id="clip0_131_4175">
<rect width="150" height="150" fill="white"/>
</clipPath>
</defs>
</svg>
