<svg width="300" height="334" viewBox="0 0 300 334" fill="none" xmlns="http://www.w3.org/2000/svg">
<path d="M150 260.938C144.875 260.938 140.625 256.206 140.625 250.5V208.75C140.625 203.044 144.875 198.312 150 198.312C155.125 198.312 159.375 203.044 159.375 208.75V250.5C159.375 256.206 155.125 260.938 150 260.938Z" fill="black"/>
<path d="M220.002 313.96H80.0019C57.2519 313.96 36.5019 294.477 32.7519 269.566L16.1269 158.65C13.3769 141.393 21.0019 119.266 33.3769 108.272L120.002 31.0342C136.752 16.0042 163.127 16.1434 180.002 31.1734L266.627 108.272C278.877 119.266 286.377 141.393 283.877 158.65L267.252 269.427C263.502 294.059 242.252 313.96 220.002 313.96ZM149.877 40.7759C143.252 40.7759 136.627 43.0025 131.752 47.3167L45.1269 124.693C38.1269 130.956 33.1269 145.429 34.6269 155.31L51.2519 266.087C53.5019 280.699 66.6269 293.085 80.0019 293.085H220.002C233.377 293.085 246.502 280.699 248.752 265.948L265.377 155.171C266.752 145.429 261.752 130.678 254.877 124.554L168.252 47.4559C163.252 43.0025 156.502 40.7759 149.877 40.7759Z" fill="black"/>
</svg>
