<svg width="150" height="162" viewBox="0 0 150 162" fill="none" xmlns="http://www.w3.org/2000/svg">
<path d="M130.187 54.0676L89.2493 18.6976C81.2493 11.8126 68.7493 11.7451 60.8118 18.6301L19.8743 54.0676C13.9993 59.1301 10.4368 69.2551 11.6868 77.2201L19.5618 128.115C21.3743 139.523 31.1868 148.5 41.8743 148.5H108.124C118.687 148.5 128.687 139.32 130.499 128.048L138.374 77.1526C139.499 69.2551 135.937 59.1301 130.187 54.0676ZM79.6868 121.5C79.6868 124.268 77.5618 126.563 74.9993 126.563C72.4368 126.563 70.3118 124.268 70.3118 121.5V101.25C70.3118 98.4826 72.4368 96.1876 74.9993 96.1876C77.5618 96.1876 79.6868 98.4826 79.6868 101.25V121.5Z" fill="#171717"/>
</svg>
