<svg width="25" height="26" viewBox="0 0 25 26" fill="none" xmlns="http://www.w3.org/2000/svg">
<path d="M12.5 11.064C12.0729 11.064 11.7188 10.7064 11.7188 10.2752V6.77314C11.7188 6.34195 12.0729 5.98438 12.5 5.98438C12.9271 5.98438 13.2812 6.34195 13.2812 6.77314V10.2752C13.2812 10.7169 12.9271 11.064 12.5 11.064Z" fill="white"/>
<path d="M12.5204 21.4023C9.83291 21.4023 7.15583 20.9712 4.60374 20.1088C3.65583 19.7933 2.93708 19.1097 2.62458 18.2473C2.31208 17.3849 2.41624 16.3963 2.92666 15.534L4.24958 13.3044C4.54124 12.8101 4.80166 11.8846 4.80166 11.3062V9.09766C4.80166 4.79627 8.25999 1.30469 12.5204 1.30469C16.7808 1.30469 20.2392 4.79627 20.2392 9.09766V11.3062C20.2392 11.8741 20.4996 12.8101 20.7912 13.3044L22.1142 15.534C22.6037 16.3543 22.6871 17.3323 22.3642 18.2263C22.0412 19.1202 21.3329 19.8038 20.4371 20.1088C17.885 20.9817 15.2079 21.4023 12.5204 21.4023ZM12.5204 2.89273C9.12458 2.89273 6.36416 5.67969 6.36416 9.10817V11.3167C6.36416 12.1686 6.03083 13.399 5.59333 14.1247L4.27041 16.3648C3.99958 16.817 3.93708 17.3008 4.09333 17.7215C4.24958 18.1421 4.60374 18.4576 5.10374 18.6259C9.89541 20.235 15.1662 20.235 19.9579 18.6259C20.4058 18.4787 20.7496 18.1421 20.9058 17.7004C21.0725 17.2587 21.0204 16.7749 20.7808 16.3648L19.4579 14.1352C19.0204 13.4096 18.6871 12.1791 18.6871 11.3272V9.11869C18.6767 5.67969 15.9162 2.89273 12.5204 2.89273Z" fill="white"/>
<path d="M12.5 24.0838C11.3854 24.0838 10.2917 23.6211 9.5 22.8218C8.70833 22.0225 8.25 20.9183 8.25 19.793H9.8125C9.8125 20.5081 10.1042 21.2022 10.6042 21.707C11.1042 22.2118 11.7917 22.5063 12.5 22.5063C13.9792 22.5063 15.1875 21.2864 15.1875 19.793H16.75C16.75 22.1593 14.8437 24.0838 12.5 24.0838Z" fill="white"/>
</svg>
