<svg width="162" height="35" viewBox="0 0 162 35" fill="none" xmlns="http://www.w3.org/2000/svg">
<g clip-path="url(#clip0_85_4071)">
<path d="M28.4766 -0.460938H5.52656C4.00488 -0.460937 2.54553 0.169818 1.46954 1.29257C0.393548 2.41532 -0.210937 3.9381 -0.210938 5.52591V29.4733C-0.210937 31.0611 0.393548 32.5839 1.46954 33.7066C2.54553 34.8294 4.00488 35.4601 5.52656 35.4601H28.4766C29.9982 35.4601 31.4576 34.8294 32.5336 33.7066C33.6096 32.5839 34.2141 31.0611 34.2141 29.4733V5.52591C34.2141 3.9381 33.6096 2.41532 32.5336 1.29257C31.4576 0.169818 29.9982 -0.460937 28.4766 -0.460938ZM30.3891 29.4733C30.3891 30.0025 30.1876 30.5101 29.8289 30.8844C29.4702 31.2586 28.9838 31.4689 28.4766 31.4689H5.52656C5.01934 31.4689 4.53288 31.2586 4.17422 30.8844C3.81556 30.5101 3.61406 30.0025 3.61406 29.4733V5.52591C3.61406 4.99664 3.81556 4.48904 4.17422 4.11479C4.53288 3.74054 5.01934 3.53029 5.52656 3.53029H28.4766C28.9838 3.53029 29.4702 3.74054 29.8289 4.11479C30.1876 4.48904 30.3891 4.99664 30.3891 5.52591V29.4733Z" fill="#231F20"/>
<path d="M22.7391 15.5025H18.9141V11.5112C18.9141 10.982 18.7126 10.4744 18.3539 10.1001C17.9952 9.72588 17.5088 9.51562 17.0016 9.51562C16.4943 9.51562 16.0079 9.72588 15.6492 10.1001C15.2906 10.4744 15.0891 10.982 15.0891 11.5112V15.5025H11.2641C10.7568 15.5025 10.2704 15.7127 9.91172 16.087C9.55306 16.4612 9.35156 16.9688 9.35156 17.4981C9.35156 18.0274 9.55306 18.5349 9.91172 18.9092C10.2704 19.2834 10.7568 19.4937 11.2641 19.4937H15.0891V23.4849C15.0891 24.0142 15.2906 24.5218 15.6492 24.896C16.0079 25.2703 16.4943 25.4805 17.0016 25.4805C17.5088 25.4805 17.9952 25.2703 18.3539 24.896C18.7126 24.5218 18.9141 24.0142 18.9141 23.4849V19.4937H22.7391C23.2463 19.4937 23.7327 19.2834 24.0914 18.9092C24.4501 18.5349 24.6516 18.0274 24.6516 17.4981C24.6516 16.9688 24.4501 16.4612 24.0914 16.087C23.7327 15.7127 23.2463 15.5025 22.7391 15.5025Z" fill="#231F20"/>
</g>
<g clip-path="url(#clip1_85_4071)">
<line x1="81" y1="1" x2="81" y2="28" stroke="black" stroke-width="2"/>
<rect x="74.5" y="13.5" width="1" height="3" rx="0.5" fill="black" stroke="black"/>
<rect x="87.5" y="13.5" width="1" height="3" rx="0.5" fill="black" stroke="black"/>
<rect x="70" y="28" width="2" height="3" fill="black" stroke="black" stroke-width="2"/>
<path d="M90 28H92V32H90V28Z" fill="black" stroke="black" stroke-width="2"/>
<rect x="67" y="2" width="28" height="26" rx="4" stroke="black" stroke-width="2"/>
</g>
<rect x="129" y="1" width="32" height="33" rx="16" stroke="black" stroke-width="2"/>
<defs>
<clipPath id="clip0_85_4071">
<rect width="34" height="35" fill="white"/>
</clipPath>
<clipPath id="clip1_85_4071">
<rect width="30" height="32" fill="white" transform="translate(66)"/>
</clipPath>
</defs>
</svg>
