<svg width="13" height="21" viewBox="0 0 13 21" fill="none" xmlns="http://www.w3.org/2000/svg">
<rect x="0.5" y="0.5" width="12" height="20" rx="2.5" stroke="black"/>
<path d="M4 8.625C4 8.10583 4.14662 7.59831 4.42133 7.16664C4.69603 6.73495 5.08648 6.3985 5.54328 6.19982C6.0001 6.00114 6.50276 5.94915 6.98773 6.05044C7.47268 6.15173 7.91813 6.40174 8.26776 6.76885C8.6174 7.13596 8.85549 7.60369 8.95196 8.1129C9.04843 8.6221 8.99891 9.1499 8.8097 9.62956C8.62048 10.1092 8.30005 10.5192 7.88891 10.8076C7.4778 11.0961 6.99445 11.25 6.5 11.25V13" stroke="black" stroke-linecap="round" stroke-linejoin="round"/>
<rect x="6.25" y="15.25" width="0.5" height="0.5" rx="0.25" fill="black" stroke="black" stroke-width="0.5"/>
</svg>
