<svg width="61" height="56" viewBox="0 0 61 56" fill="none" xmlns="http://www.w3.org/2000/svg">
<path d="M11.1629 29.6298L1.57901 27.5205C1.31228 27.4607 1.0608 27.3501 0.839507 27.1953C0.618217 27.0405 0.431629 26.8446 0.290817 26.6193C0.150004 26.394 0.0578453 26.1439 0.019808 25.8837C-0.0182293 25.6236 -0.00136884 25.3588 0.0693922 25.1051L5.35736 8.23052C5.48892 7.76567 5.79649 7.36457 6.21999 7.10556L20.1688 0.314348C20.4999 0.107862 20.8867 -0.0013928 21.2816 1.34052e-05H39.7161C40.1137 -0.000622069 40.503 0.108505 40.8376 0.314348L54.7864 7.10556C55.2054 7.36911 55.5116 7.7684 55.649 8.23052L60.9284 25.1051C61.0005 25.3583 61.0186 25.6229 60.9817 25.8829C60.9448 26.143 60.8535 26.3933 60.7134 26.6187C60.5732 26.8442 60.3871 27.0403 60.1662 27.1953C59.9452 27.3502 59.694 27.4608 59.4274 27.5205L49.8435 29.6298" fill="#9E9292"/>
<path d="M11.1634 23.5253V47.9273C11.1742 49.5925 11.8484 51.1907 13.048 52.3947C14.2475 53.5988 15.8817 54.3177 17.6159 54.4042C21.7408 55.1211 25.9234 55.4892 30.1155 55.5043H30.8919C35.0868 55.4897 39.2723 55.1216 43.4001 54.4042C45.1343 54.3177 46.7685 53.5988 47.968 52.3947C49.1675 51.1907 49.8417 49.5925 49.8526 47.9273V23.5253" fill="#9E9292"/>
<path d="M38.508 0C38.508 2.03368 37.6655 3.98406 36.1659 5.42209C34.6662 6.86012 32.6322 7.66803 30.5114 7.66803C28.3905 7.66803 26.3566 6.86012 24.8569 5.42209C23.3573 3.98406 22.5148 2.03368 22.5148 0" fill="white"/>
</svg>
