<svg width="28" height="31" viewBox="0 0 28 31" fill="none" xmlns="http://www.w3.org/2000/svg">
<path d="M14 13.5864C13.5217 13.5864 13.125 13.1472 13.125 12.6177V8.31641C13.125 7.78682 13.5217 7.34766 14 7.34766C14.4783 7.34766 14.875 7.78682 14.875 8.31641V12.6177C14.875 13.1602 14.4783 13.5864 14 13.5864Z" fill="white"/>
<path d="M14.023 26.2853C11.013 26.2853 8.01468 25.7557 5.15635 24.6966C4.09468 24.3091 3.28968 23.4695 2.93968 22.4103C2.58968 21.3511 2.70635 20.137 3.27802 19.0778L4.75968 16.3395C5.08635 15.7324 5.37802 14.5957 5.37802 13.8853V11.1728C5.37802 5.8899 9.25135 1.60156 14.023 1.60156C18.7947 1.60156 22.668 5.8899 22.668 11.1728V13.8853C22.668 14.5828 22.9597 15.7324 23.2863 16.3395L24.768 19.0778C25.3163 20.0853 25.4097 21.2866 25.048 22.3845C24.6863 23.4824 23.893 24.322 22.8897 24.6966C20.0313 25.7686 17.033 26.2853 14.023 26.2853ZM14.023 3.55198C10.2197 3.55198 7.12802 6.9749 7.12802 11.1857V13.8982C7.12802 14.9445 6.75468 16.4557 6.26468 17.347L4.78302 20.0982C4.47968 20.6536 4.40968 21.2478 4.58468 21.7645C4.75968 22.2811 5.15635 22.6686 5.71635 22.8753C11.083 24.8516 16.9863 24.8516 22.353 22.8753C22.8547 22.6945 23.2397 22.2811 23.4147 21.7386C23.6013 21.1961 23.543 20.602 23.2747 20.0982L21.793 17.3599C21.303 16.4686 20.9297 14.9574 20.9297 13.9111V11.1986C20.918 6.9749 17.8263 3.55198 14.023 3.55198Z" fill="white"/>
<path d="M14.0002 29.5786C12.7519 29.5786 11.5269 29.0103 10.6402 28.0286C9.75357 27.0469 9.24023 25.6907 9.24023 24.3086H10.9902C10.9902 25.1869 11.3169 26.0394 11.8769 26.6594C12.4369 27.2794 13.2069 27.6411 14.0002 27.6411C15.6569 27.6411 17.0102 26.1428 17.0102 24.3086H18.7602C18.7602 27.2148 16.6252 29.5786 14.0002 29.5786Z" fill="white"/>
</svg>
