<svg width="13" height="18" viewBox="0 0 13 18" fill="none" xmlns="http://www.w3.org/2000/svg">
<path d="M6.22884 16.3125C3.16842 16.3125 0.676758 12.8625 0.676758 8.625C0.676758 4.3875 3.16842 0.9375 6.22884 0.9375C9.28926 0.9375 11.7809 4.3875 11.7809 8.625C11.7809 12.8625 9.28926 16.3125 6.22884 16.3125ZM6.22884 2.0625C3.61259 2.0625 1.48926 5.01 1.48926 8.625C1.48926 12.24 3.61259 15.1875 6.22884 15.1875C8.84509 15.1875 10.9684 12.24 10.9684 8.625C10.9684 5.01 8.84509 2.0625 6.22884 2.0625Z" fill="#817373"/>
<path d="M11.9169 17.0606C11.814 17.0606 11.7111 17.0081 11.6299 16.8956L10.5465 15.3956C10.3894 15.1781 10.3894 14.8181 10.5465 14.6006C10.7036 14.3831 10.9636 14.3831 11.1207 14.6006L12.204 16.1006C12.3611 16.3181 12.3611 16.6781 12.204 16.8956C12.1228 17.0081 12.0199 17.0606 11.9169 17.0606Z" fill="#817373"/>
</svg>
