<svg width="57" height="56" viewBox="0 0 57 56" fill="none" xmlns="http://www.w3.org/2000/svg">
<path d="M56.8574 29.6116C56.8462 30.7017 56.6161 31.7788 56.1802 32.7808C55.7444 33.7828 55.1115 34.6899 54.318 35.4496L37.1944 52.1296C32.3527 56.8417 24.9971 57.3171 20.7564 53.1971C16.5157 49.0771 17.0151 41.9131 21.8568 37.2093L34.7059 24.6993V1.4474C34.707 1.25792 34.7459 1.07049 34.8206 0.89586C34.8952 0.721226 35.0039 0.56279 35.1407 0.429585C35.2775 0.296381 35.4395 0.191029 35.6176 0.119533C35.7957 0.0480375 35.9864 0.0118431 36.1787 0.0129415H55.3338C55.5303 0.00509796 55.7264 0.0363062 55.9104 0.104771C56.0944 0.173236 56.2625 0.277533 56.4047 0.411413C56.5469 0.545292 56.6603 0.706006 56.7381 0.883999C56.8158 1.06199 56.8564 1.25361 56.8574 1.4474V29.6116Z" fill="#9E9292"/>
<path d="M56.8574 24.5159V29.6117C56.8463 30.7018 56.6161 31.7789 56.1803 32.7809C55.7445 33.7829 55.1116 34.6899 54.3181 35.4497L51.0424 38.6356L50.8138 38.5772C50.0273 37.8154 49.4028 36.9067 48.977 35.9043C48.5511 34.9019 48.3325 33.8259 48.3337 32.7392C48.3649 30.5374 49.2787 28.4372 50.8755 26.8966C52.4723 25.3561 54.6227 24.5003 56.8574 24.5159Z" fill="white"/>
<path d="M38.9716 0.0117581H52.6163C53.7388 0.0117581 54.8153 0.451106 55.609 1.23313C56.4027 2.01516 56.8486 3.07581 56.8486 4.18176V10.0198H34.7394V4.18176C34.7394 3.07581 35.1853 2.01516 35.979 1.23313C36.7727 0.451106 37.8491 0.0117581 38.9716 0.0117581Z" fill="white"/>
<path d="M28.8735 0.0117824C29.0658 0.010684 29.2564 0.0468784 29.4345 0.118374C29.6126 0.189869 29.7747 0.295222 29.9114 0.428426C30.0482 0.561631 30.157 0.720067 30.2316 0.894701C30.3062 1.06933 30.3452 1.25676 30.3463 1.44624V10.4284V22.9384L17.9204 35.0564C15.365 37.4801 13.8043 40.7456 13.5358 44.2304C13.377 46.2987 13.7802 48.3714 14.704 50.2352C14.8212 50.4546 14.8772 50.7007 14.8663 50.9484C14.8555 51.1961 14.7781 51.4365 14.6421 51.6451C14.5061 51.8537 14.3164 52.023 14.0923 52.1358C13.8682 52.2485 13.6178 52.3007 13.3665 52.2869C13.3665 52.2869 7.06052 52.9458 3.00603 49.5681C-1.53939 45.7734 -0.735276 38.284 4.10641 33.5719L16.947 21.0619C16.947 20.5532 16.947 15.4908 16.947 10.4618C16.947 6.9006 16.947 3.36442 16.947 1.47958C16.947 1.47958 16.947 1.39621 16.947 1.35451C16.9869 0.998494 17.1598 0.669835 17.432 0.432448C17.7042 0.19506 18.0564 0.0658832 18.4199 0.0701176L28.8735 0.0117824Z" fill="#9E9292"/>
<path d="M19.0206 0.0130845H28.8733C29.0656 0.0119861 29.2562 0.0481805 29.4343 0.119676C29.6124 0.191172 29.7745 0.296524 29.9113 0.429728C30.048 0.562933 30.1568 0.721369 30.2314 0.896003C30.306 1.07064 30.345 1.25807 30.3461 1.44754V10.4297H16.9299V1.44754C16.9257 1.40594 16.9257 1.36402 16.9299 1.32242C17.0727 0.900744 17.3585 0.540371 17.7393 0.30191C18.12 0.0634488 18.5725 -0.0385115 19.0206 0.0130845Z" fill="white"/>
</svg>
