<svg width="35" height="35" viewBox="0 0 35 35" fill="none" xmlns="http://www.w3.org/2000/svg">
<path d="M17.5 0C7.8575 0 0 7.8575 0 17.5C0 27.1425 7.8575 35 17.5 35C27.1425 35 35 27.1425 35 17.5C35 7.8575 27.1425 0 17.5 0ZM25.1125 23.7475C24.8675 24.1675 24.43 24.395 23.975 24.395C23.7475 24.395 23.52 24.3425 23.31 24.2025L17.885 20.965C16.5375 20.16 15.54 18.3925 15.54 16.835V9.66C15.54 8.9425 16.135 8.3475 16.8525 8.3475C17.57 8.3475 18.165 8.9425 18.165 9.66V16.835C18.165 17.465 18.69 18.3925 19.2325 18.7075L24.6575 21.945C25.2875 22.3125 25.4975 23.1175 25.1125 23.7475Z" fill="#171717"/>
</svg>
