<svg xmlns="http://www.w3.org/2000/svg" xmlns:xlink="http://www.w3.org/1999/xlink" width="1080" zoomAndPan="magnify" viewBox="0 0 810 809.999993" height="1080" preserveAspectRatio="xMidYMid meet" version="1.0"><defs><clipPath id="cc3a8f810f"><path d="M 259 12.09375 L 766 12.09375 L 766 738.84375 L 259 738.84375 Z M 259 12.09375 " clip-rule="nonzero"/></clipPath><clipPath id="4ed6470433"><path d="M 478 12.09375 L 766 12.09375 L 766 143 L 478 143 Z M 478 12.09375 " clip-rule="nonzero"/></clipPath><clipPath id="2336f27ed2"><path d="M 27.398438 12.09375 L 422 12.09375 L 422 692 L 27.398438 692 Z M 27.398438 12.09375 " clip-rule="nonzero"/></clipPath><clipPath id="0a5500d166"><path d="M 247 12.09375 L 422 12.09375 L 422 148 L 247 148 Z M 247 12.09375 " clip-rule="nonzero"/></clipPath><clipPath id="6be38e6465"><path d="M 13.347656 0 L 810 0 L 810 150.746094 L 13.347656 150.746094 Z M 13.347656 0 " clip-rule="nonzero"/></clipPath><clipPath id="5b7555bdf9"><path d="M 51.597656 -126.558594 L 903.65625 -126.558594 C 913.800781 -126.558594 923.527344 -122.53125 930.703125 -115.355469 C 937.875 -108.183594 941.90625 -98.453125 941.90625 -88.308594 L 941.90625 112.496094 C 941.90625 122.640625 937.875 132.371094 930.703125 139.542969 C 923.527344 146.714844 913.800781 150.746094 903.65625 150.746094 L 51.597656 150.746094 C 41.453125 150.746094 31.722656 146.714844 24.550781 139.542969 C 17.375 132.371094 13.347656 122.640625 13.347656 112.496094 L 13.347656 -88.308594 C 13.347656 -98.453125 17.375 -108.183594 24.550781 -115.355469 C 31.722656 -122.53125 41.453125 -126.558594 51.597656 -126.558594 Z M 51.597656 -126.558594 " clip-rule="nonzero"/></clipPath><clipPath id="b391e988f0"><path d="M 662.949219 337.21875 L 810 337.21875 L 810 549 L 662.949219 549 Z M 662.949219 337.21875 " clip-rule="nonzero"/></clipPath><clipPath id="bc70339b5c"><path d="M 767.484375 337.21875 C 709.753906 337.21875 662.949219 384.636719 662.949219 443.132812 C 662.949219 501.628906 709.753906 549.050781 767.484375 549.050781 C 825.21875 549.050781 872.019531 501.628906 872.019531 443.132812 C 872.019531 384.636719 825.21875 337.21875 767.484375 337.21875 Z M 767.484375 337.21875 " clip-rule="nonzero"/></clipPath></defs><rect x="-81" width="972" fill="#ffffff" y="-80.999999" height="971.999992" fill-opacity="1"/><rect x="-81" width="972" fill="#ffffff" y="-80.999999" height="971.999992" fill-opacity="1"/><g clip-path="url(#cc3a8f810f)"><path fill="#9e9292" d="M 765.796875 396.382812 C 765.652344 410.53125 762.664062 424.507812 757.003906 437.511719 C 751.34375 450.515625 743.125 462.289062 732.820312 472.144531 L 510.4375 688.613281 C 447.558594 749.765625 352.03125 755.9375 296.960938 702.46875 C 241.886719 649 248.371094 556.027344 311.25 494.984375 L 478.121094 332.632812 L 478.121094 30.875 C 478.132812 28.417969 478.640625 25.984375 479.609375 23.71875 C 480.578125 21.453125 481.988281 19.398438 483.765625 17.667969 C 485.542969 15.9375 487.648438 14.570312 489.960938 13.644531 C 492.273438 12.714844 494.75 12.246094 497.246094 12.261719 L 746.011719 12.261719 C 748.5625 12.160156 751.109375 12.5625 753.5 13.453125 C 755.886719 14.339844 758.070312 15.695312 759.917969 17.433594 C 761.765625 19.167969 763.238281 21.253906 764.246094 23.566406 C 765.257812 25.875 765.785156 28.363281 765.796875 30.875 Z M 765.796875 396.382812 " fill-opacity="1" fill-rule="nonzero"/></g><path fill="#ffffff" d="M 765.796875 330.253906 L 765.796875 396.382812 C 765.652344 410.53125 762.664062 424.507812 757.003906 437.511719 C 751.34375 450.515625 743.125 462.289062 732.820312 472.148438 L 690.277344 513.492188 L 687.308594 512.734375 C 677.097656 502.847656 668.984375 491.054688 663.457031 478.046875 C 657.925781 465.039062 655.085938 451.074219 655.101562 436.972656 C 655.507812 408.398438 667.375 381.140625 688.113281 361.148438 C 708.847656 341.15625 736.777344 330.050781 765.796875 330.253906 Z M 765.796875 330.253906 " fill-opacity="1" fill-rule="nonzero"/><g clip-path="url(#4ed6470433)"><path fill="#ffffff" d="M 533.515625 12.246094 L 710.71875 12.246094 C 725.296875 12.246094 739.277344 17.945312 749.585938 28.097656 C 759.890625 38.246094 765.683594 52.007812 765.683594 66.363281 L 765.683594 142.125 L 478.554688 142.125 L 478.554688 66.363281 C 478.554688 52.007812 484.34375 38.246094 494.652344 28.097656 C 504.960938 17.945312 518.941406 12.246094 533.515625 12.246094 Z M 533.515625 12.246094 " fill-opacity="1" fill-rule="nonzero"/></g><g clip-path="url(#2336f27ed2)"><path fill="#9e9292" d="M 402.375 12.246094 C 404.871094 12.230469 407.347656 12.703125 409.660156 13.628906 C 411.972656 14.558594 414.078125 15.925781 415.855469 17.652344 C 417.628906 19.382812 419.042969 21.4375 420.011719 23.703125 C 420.980469 25.96875 421.488281 28.402344 421.503906 30.863281 L 421.503906 309.78125 L 260.128906 467.042969 C 226.941406 498.496094 206.675781 540.875 203.1875 586.101562 C 201.125 612.941406 206.359375 639.839844 218.359375 664.027344 C 219.878906 666.875 220.609375 670.070312 220.464844 673.285156 C 220.324219 676.5 219.320312 679.621094 217.554688 682.328125 C 215.789062 685.035156 213.324219 687.230469 210.414062 688.695312 C 207.503906 690.15625 204.25 690.835938 200.988281 690.65625 C 200.988281 690.65625 119.09375 699.207031 66.4375 655.371094 C 7.40625 606.125 17.851562 508.929688 80.730469 447.777344 L 247.488281 285.425781 C 247.488281 278.824219 247.488281 213.128906 247.488281 147.863281 C 247.488281 101.648438 247.488281 55.753906 247.488281 31.292969 C 247.488281 31.292969 247.488281 30.210938 247.488281 29.671875 C 248.003906 25.050781 250.25 20.785156 253.785156 17.703125 C 257.320312 14.625 261.894531 12.949219 266.617188 13.003906 Z M 402.375 12.246094 " fill-opacity="1" fill-rule="nonzero"/></g><g clip-path="url(#0a5500d166)"><path fill="#ffffff" d="M 274.417969 12.261719 L 402.371094 12.261719 C 404.871094 12.25 407.34375 12.71875 409.65625 13.644531 C 411.972656 14.574219 414.078125 15.941406 415.851562 17.667969 C 417.628906 19.398438 419.042969 21.453125 420.011719 23.722656 C 420.980469 25.988281 421.484375 28.417969 421.5 30.878906 L 421.5 147.445312 L 247.265625 147.445312 L 247.265625 30.878906 C 247.210938 30.339844 247.210938 29.792969 247.265625 29.253906 C 249.121094 23.78125 252.832031 19.105469 257.777344 16.011719 C 262.722656 12.917969 268.597656 11.59375 274.417969 12.261719 Z M 274.417969 12.261719 " fill-opacity="1" fill-rule="nonzero"/></g><g clip-path="url(#6be38e6465)"><g clip-path="url(#5b7555bdf9)"><path fill="#ffffff" d="M 13.347656 -126.558594 L 941.675781 -126.558594 L 941.675781 150.746094 L 13.347656 150.746094 Z M 13.347656 -126.558594 " fill-opacity="1" fill-rule="nonzero"/></g></g><g clip-path="url(#b391e988f0)"><g clip-path="url(#bc70339b5c)"><path fill="#ffffff" d="M 662.949219 337.21875 L 872.019531 337.21875 L 872.019531 548.738281 L 662.949219 548.738281 Z M 662.949219 337.21875 " fill-opacity="1" fill-rule="nonzero"/></g></g></svg>